<?xml version="1.0" encoding="utf-8"?>
<!-- Generator: Adobe Illustrator 17.1.0, SVG Export Plug-In . SVG Version: 6.00 Build 0)  -->
<!DOCTYPE svg PUBLIC "-//W3C//DTD SVG 1.1//EN" "http://www.w3.org/Graphics/SVG/1.1/DTD/svg11.dtd">
<svg version="1.1" id="Layer_1" xmlns="http://www.w3.org/2000/svg" xmlns:xlink="http://www.w3.org/1999/xlink" x="0px" y="0px"
	 viewBox="0 0 500 334.5" enable-background="new 0 0 500 334.5" xml:space="preserve">
<path fill="#3997D3" d="M422.5,143.5C436,76.7,400.4,38.9,369.4,19.2C337-1.4,246.2-16.1,201.4,70C163.8,41.7,125,54,106.5,67.2
	c-33.2,23.6-35,57.3-31.2,77c-43.5,13.2-70.7,48-70.7,91.4c0,52.6,43.8,95.2,97.9,95.2h295.2c54.1,0,97.9-42.6,97.9-95.2
	C495.5,191.3,464.3,154.8,422.5,143.5z M233.3,304.8V200.6h-33.4l66.8-134.5v104.2h33.4L233.3,304.8z"/>
</svg>
